<svg width="960" height="540" viewBox="0 0 960 540" fill="none" xmlns="http://www.w3.org/2000/svg">
<path d="M960 351C914.6 346.4 869.1 341.8 825.7 324.3C782.2 306.8 740.7 276.5 722.4 237.6C704.1 198.7 709 151.2 693.9 110.2C678.9 69.2 643.9 34.6 609 0H960V351Z" fill="#002537"/>
<path d="M960 263.3C925.9 259.8 891.9 256.3 859.3 243.2C826.7 230.1 795.5 207.4 781.8 178.2C768.1 149 771.7 113.4 760.4 82.7C749.2 51.9 723 25.9 696.8 0H960V263.3Z" fill="#004F5C"/>
<path d="M960 175.5C937.3 173.2 914.6 170.9 892.8 162.1C871.1 153.4 850.4 138.2 841.2 118.8C832 99.3 834.5 75.6 827 55.1C819.4 34.6 802 17.3 784.5 0H960V175.5Z" fill="#007C6A"/>
<path d="M960 87.8C948.6 86.6 937.3 85.4 926.4 81.1C915.6 76.7 905.2 69.1 900.6 59.4C896 49.7 897.2 37.8 893.5 27.6C889.7 17.3 881 8.6 872.3 0H960V87.8Z" fill="#099268"/>
<path d="M0 189C41.7 203 83.4 217 127.8 231.4C172.2 245.8 219.2 260.6 248.2 291.8C277.1 323 288 370.8 302.1 414.9C316.2 459 333.6 499.5 351 540H0V189Z" fill="#002537"/>
<path d="M0 276.8C31.3 287.3 62.6 297.8 95.9 308.6C129.1 319.4 164.4 330.4 186.1 353.9C207.9 377.3 216 413.1 226.6 446.1C237.2 479.2 250.2 509.6 263.3 540H0V276.8Z" fill="#004F5C"/>
<path d="M0 364.5C20.9 371.5 41.7 378.5 63.9 385.7C86.1 392.9 109.6 400.3 124.1 415.9C138.6 431.5 144 455.4 151.1 477.4C158.1 499.5 166.8 519.7 175.5 540H0V364.5Z" fill="#007C6A"/>
<path d="M0 452.3C10.4 455.8 20.9 459.3 32 462.9C43 466.5 54.8 470.1 62 478C69.3 485.8 72 497.7 75.5 508.7C79.1 519.7 83.4 529.9 87.8 540H0V452.3Z" fill="#099268"/>
</svg>
