<svg width="318" height="85" viewBox="0 0 318 85" fill="none" xmlns="http://www.w3.org/2000/svg">
<mask id="mask0_101_2" style="mask-type:luminance" maskUnits="userSpaceOnUse" x="0" y="0" width="52" height="85">
<path d="M52 0H0V85H52V0Z" fill="white"/>
</mask>
<g mask="url(#mask0_101_2)">
<path d="M25.9921 0L25.4245 1.93645V58.1278L25.9921 58.6966L51.9804 43.2786L25.9921 0Z" fill="#28A577"/>
<path d="M25.9924 0L0.00402832 43.2786L25.9924 58.6966V31.4231V0Z" fill="#2CC08A"/>
<path d="M25.9921 63.635L25.6722 64.0264V84.0432L25.9921 84.9809L51.9963 48.2252L25.9921 63.635Z" fill="#309E76"/>
<path d="M25.9923 84.9807V63.6348L0.00390625 48.225L25.9923 84.9807Z" fill="#2CC08A"/>
<path d="M25.9921 58.6966L51.9801 43.279L25.9921 31.4233V58.6966Z" fill="#1D694E"/>
<path d="M0.00390625 43.2786L25.9919 58.6966V31.4231L0.00390625 43.2786Z" fill="#2D8D6A"/>
</g>
<path d="M85.4432 59V24.0909H108.148V29.392H91.767V38.8693H106.972V44.1705H91.767V53.6989H108.284V59H85.4432ZM127.401 32.8182V37.5909H112.349V32.8182H127.401ZM116.065 26.5455H122.236V51.125C122.236 51.9545 122.361 52.5909 122.611 53.0341C122.872 53.4659 123.213 53.7614 123.634 53.9205C124.054 54.0795 124.52 54.1591 125.031 54.1591C125.418 54.1591 125.77 54.1307 126.088 54.0739C126.418 54.017 126.668 53.9659 126.838 53.9205L127.878 58.7443C127.548 58.858 127.077 58.983 126.463 59.1193C125.861 59.2557 125.122 59.3352 124.247 59.358C122.702 59.4034 121.31 59.1705 120.071 58.6591C118.832 58.1364 117.849 57.3295 117.122 56.2386C116.406 55.1477 116.054 53.7841 116.065 52.1477V26.5455ZM139.294 43.6591V59H133.124V24.0909H139.158V37.267H139.464C140.078 35.7898 141.027 34.625 142.311 33.7727C143.607 32.9091 145.254 32.4773 147.254 32.4773C149.072 32.4773 150.658 32.858 152.01 33.6193C153.362 34.3807 154.408 35.4943 155.146 36.9602C155.896 38.4261 156.271 40.2159 156.271 42.3295V59H150.101V43.2841C150.101 41.5227 149.646 40.1534 148.737 39.1761C147.839 38.1875 146.578 37.6932 144.953 37.6932C143.862 37.6932 142.885 37.9318 142.021 38.4091C141.169 38.875 140.499 39.5511 140.01 40.4375C139.533 41.3239 139.294 42.3977 139.294 43.6591ZM174.152 59.5114C171.527 59.5114 169.26 58.9659 167.351 57.875C165.453 56.7727 163.993 55.2159 162.97 53.2045C161.947 51.1818 161.436 48.8011 161.436 46.0625C161.436 43.3693 161.947 41.0057 162.97 38.9716C164.004 36.9261 165.447 35.3352 167.3 34.1989C169.152 33.0511 171.328 32.4773 173.828 32.4773C175.442 32.4773 176.964 32.7386 178.396 33.2614C179.839 33.7727 181.112 34.5682 182.214 35.6477C183.328 36.7273 184.203 38.1023 184.839 39.7727C185.476 41.4318 185.794 43.4091 185.794 45.7045V47.5966H164.334V43.4375H179.879C179.868 42.2557 179.612 41.2045 179.112 40.2841C178.612 39.3523 177.913 38.6193 177.016 38.0852C176.129 37.5511 175.095 37.2841 173.913 37.2841C172.652 37.2841 171.544 37.5909 170.589 38.2045C169.635 38.8068 168.891 39.6023 168.357 40.5909C167.834 41.5682 167.567 42.642 167.555 43.8125V47.4432C167.555 48.9659 167.834 50.2727 168.391 51.3636C168.947 52.4432 169.726 53.2727 170.726 53.8523C171.726 54.4205 172.896 54.7045 174.237 54.7045C175.135 54.7045 175.947 54.5795 176.675 54.3295C177.402 54.0682 178.033 53.6875 178.567 53.1875C179.101 52.6875 179.504 52.0682 179.777 51.3295L185.538 51.9773C185.175 53.5 184.482 54.8295 183.459 55.9659C182.447 57.0909 181.152 57.9659 179.572 58.5909C177.993 59.2045 176.186 59.5114 174.152 59.5114ZM191.014 59V32.8182H196.997V37.1818H197.27C197.747 35.6705 198.565 34.5057 199.724 33.6875C200.895 32.858 202.23 32.4432 203.73 32.4432C204.071 32.4432 204.452 32.4602 204.872 32.4943C205.304 32.517 205.662 32.5568 205.946 32.6136V38.2898C205.685 38.1989 205.27 38.1193 204.702 38.0511C204.145 37.9716 203.605 37.9318 203.082 37.9318C201.957 37.9318 200.946 38.1761 200.048 38.6648C199.162 39.142 198.463 39.8068 197.952 40.6591C197.44 41.5114 197.185 42.4943 197.185 43.608V59H191.014ZM230.739 39.7386L225.114 40.3523C224.955 39.7841 224.676 39.25 224.278 38.75C223.892 38.25 223.369 37.8466 222.71 37.5398C222.051 37.233 221.244 37.0795 220.29 37.0795C219.006 37.0795 217.926 37.358 217.051 37.9148C216.188 38.4716 215.761 39.1932 215.773 40.0795C215.761 40.8409 216.04 41.4602 216.608 41.9375C217.188 42.4148 218.142 42.8068 219.472 43.1136L223.938 44.0682C226.415 44.6023 228.256 45.4489 229.46 46.608C230.676 47.767 231.29 49.2841 231.301 51.1591C231.29 52.8068 230.807 54.2614 229.852 55.5227C228.909 56.7727 227.597 57.75 225.915 58.4545C224.233 59.1591 222.301 59.5114 220.119 59.5114C216.915 59.5114 214.335 58.8409 212.381 57.5C210.426 56.1477 209.261 54.267 208.886 51.858L214.903 51.2784C215.176 52.4602 215.756 53.3523 216.642 53.9545C217.528 54.5568 218.682 54.858 220.102 54.858C221.568 54.858 222.744 54.5568 223.631 53.9545C224.528 53.3523 224.977 52.608 224.977 51.7216C224.977 50.9716 224.688 50.3523 224.108 49.8636C223.54 49.375 222.653 49 221.449 48.7386L216.983 47.8011C214.472 47.2784 212.614 46.3977 211.409 45.1591C210.205 43.9091 209.608 42.3295 209.619 40.4205C209.608 38.8068 210.045 37.4091 210.932 36.2273C211.83 35.0341 213.074 34.1136 214.665 33.4659C216.267 32.8068 218.114 32.4773 220.205 32.4773C223.273 32.4773 225.688 33.1307 227.449 34.4375C229.222 35.7443 230.318 37.5114 230.739 39.7386ZM236.389 68.8182V32.8182H242.457V37.1477H242.815C243.134 36.5114 243.582 35.8352 244.162 35.1193C244.741 34.392 245.526 33.7727 246.514 33.2614C247.503 32.7386 248.764 32.4773 250.298 32.4773C252.321 32.4773 254.145 32.9943 255.77 34.0284C257.406 35.0511 258.702 36.5682 259.656 38.5795C260.622 40.5795 261.105 43.0341 261.105 45.9432C261.105 48.8182 260.634 51.2614 259.69 53.2727C258.747 55.2841 257.463 56.8182 255.838 57.875C254.213 58.9318 252.372 59.4602 250.315 59.4602C248.815 59.4602 247.571 59.2102 246.582 58.7102C245.594 58.2102 244.798 57.608 244.196 56.9034C243.605 56.1875 243.145 55.5114 242.815 54.875H242.56V68.8182H236.389ZM242.44 45.9091C242.44 47.6023 242.679 49.0852 243.156 50.358C243.645 51.6307 244.344 52.625 245.253 53.3409C246.173 54.0455 247.287 54.3977 248.594 54.3977C249.957 54.3977 251.099 54.0341 252.02 53.3068C252.94 52.5682 253.634 51.5625 254.099 50.2898C254.577 49.0057 254.815 47.5455 254.815 45.9091C254.815 44.2841 254.582 42.8409 254.116 41.5795C253.651 40.3182 252.957 39.3295 252.037 38.6136C251.116 37.8977 249.969 37.5398 248.594 37.5398C247.276 37.5398 246.156 37.8864 245.236 38.5795C244.315 39.2727 243.616 40.2443 243.139 41.4943C242.673 42.7443 242.44 44.2159 242.44 45.9091ZM273.923 59.5284C272.264 59.5284 270.77 59.233 269.44 58.642C268.122 58.0398 267.077 57.1534 266.304 55.983C265.543 54.8125 265.162 53.3693 265.162 51.6534C265.162 50.1761 265.435 48.9545 265.98 47.9886C266.526 47.0227 267.27 46.25 268.213 45.6705C269.156 45.0909 270.219 44.6534 271.401 44.358C272.594 44.0511 273.827 43.8295 275.099 43.6932C276.634 43.5341 277.878 43.392 278.832 43.267C279.787 43.1307 280.48 42.9261 280.912 42.6534C281.355 42.3693 281.577 41.9318 281.577 41.3409V41.2386C281.577 39.9545 281.196 38.9602 280.435 38.2557C279.673 37.5511 278.577 37.1989 277.145 37.1989C275.634 37.1989 274.435 37.5284 273.548 38.1875C272.673 38.8466 272.082 39.625 271.776 40.5227L266.014 39.7045C266.469 38.1136 267.219 36.7841 268.264 35.7159C269.31 34.6364 270.588 33.8295 272.099 33.2955C273.611 32.75 275.281 32.4773 277.111 32.4773C278.372 32.4773 279.628 32.625 280.878 32.9205C282.128 33.2159 283.27 33.7045 284.304 34.3864C285.338 35.0568 286.168 35.9716 286.793 37.1307C287.429 38.2898 287.747 39.7386 287.747 41.4773V59H281.815V55.4034H281.611C281.236 56.1307 280.707 56.8125 280.026 57.4489C279.355 58.0739 278.509 58.5795 277.486 58.9659C276.474 59.3409 275.287 59.5284 273.923 59.5284ZM275.526 54.9943C276.764 54.9943 277.838 54.75 278.747 54.2614C279.656 53.7614 280.355 53.1023 280.844 52.2841C281.344 51.4659 281.594 50.5739 281.594 49.608V46.5227C281.401 46.6818 281.071 46.8295 280.605 46.9659C280.151 47.1023 279.639 47.2216 279.071 47.3239C278.503 47.4261 277.94 47.517 277.384 47.5966C276.827 47.6761 276.344 47.7443 275.935 47.8011C275.014 47.9261 274.19 48.1307 273.463 48.4148C272.736 48.6989 272.162 49.0966 271.741 49.608C271.321 50.108 271.111 50.7557 271.111 51.5511C271.111 52.6875 271.526 53.5455 272.355 54.125C273.185 54.7045 274.241 54.9943 275.526 54.9943ZM296.849 68.8182C296.009 68.8182 295.23 68.75 294.514 68.6136C293.81 68.4886 293.247 68.3409 292.827 68.1705L294.259 63.3636C295.156 63.625 295.957 63.75 296.662 63.7386C297.366 63.7273 297.986 63.5057 298.52 63.0739C299.065 62.6534 299.526 61.9489 299.901 60.9602L300.429 59.5455L290.935 32.8182H297.48L303.514 52.5909H303.787L309.838 32.8182H316.401L305.918 62.1705C305.429 63.5568 304.781 64.7443 303.974 65.733C303.168 66.733 302.179 67.4943 301.009 68.017C299.849 68.5511 298.463 68.8182 296.849 68.8182Z" fill="#8D8D8D"/>
</svg>
